<svg id="组_3831" data-name="组 3831" xmlns="http://www.w3.org/2000/svg" width="23.569" height="23.126" viewBox="0 0 23.569 23.126">
  <g id="组_3830" data-name="组 3830">
    <path id="color" d="M41.024.11,51.538.882,52.314,11.4l-2.877,2.877-.885-.885,2.543-2.543L50.431,2.1l-8.743-.664L30.624,12.5l9.849,9.849-.885.885L28.745,12.393Zm4.651,14.162v3.541h3.541v1.328H45.675v3.541H44.348V19.141H40.8V17.813h3.545V14.272Zm.994-10.843a2.272,2.272,0,0,1,2.326,2.326,2.324,2.324,0,0,1-4.647,0A2.269,2.269,0,0,1,46.669,3.429Zm0,1.328a1,1,0,1,0,1,1A.992.992,0,0,0,46.669,4.757Z" transform="translate(-28.745 -0.11)" fill="rgba(0,0,0,0.87)" fill-rule="evenodd"/>
  </g>
</svg>
